<svg xmlns="http://www.w3.org/2000/svg" viewBox="0 0 100 100" width="100" height="100">
  <defs>
    <linearGradient id="shieldGradient" x1="0%" y1="0%" x2="100%" y2="100%">
      <stop offset="0%" style="stop-color:#4FC3F7;stop-opacity:1" />
      <stop offset="100%" style="stop-color:#1565C0;stop-opacity:1" />
    </linearGradient>
    <linearGradient id="letterGradient" x1="0%" y1="0%" x2="100%" y2="100%">
      <stop offset="0%" style="stop-color:#29B6F6;stop-opacity:1" />
      <stop offset="100%" style="stop-color:#0D47A1;stop-opacity:1" />
    </linearGradient>
  </defs>
  
  <!-- Shield outline -->
  <path d="M50 5 L90 20 L90 50 C90 75 70 90 50 95 C30 90 10 75 10 50 L10 20 Z" 
        fill="none" 
        stroke="url(#shieldGradient)" 
        stroke-width="3"
        stroke-linejoin="round"/>
  
  <!-- Letter A -->
  <path d="M50 25 L35 70 L42 70 L45 60 L55 60 L58 70 L65 70 L50 25 Z M47 52 L50 38 L53 52 Z" 
        fill="url(#letterGradient)"/>
  
  <!-- Circuit dots left -->
  <circle cx="18" cy="35" r="3" fill="url(#shieldGradient)"/>
  <line x1="21" y1="35" x2="30" y2="35" stroke="url(#shieldGradient)" stroke-width="2"/>
  
  <circle cx="18" cy="50" r="3" fill="url(#shieldGradient)"/>
  <line x1="21" y1="50" x2="28" y2="50" stroke="url(#shieldGradient)" stroke-width="2"/>
  
  <circle cx="18" cy="65" r="3" fill="url(#shieldGradient)"/>
  <line x1="21" y1="65" x2="26" y2="65" stroke="url(#shieldGradient)" stroke-width="2"/>
  
  <!-- Circuit dots right -->
  <circle cx="82" cy="35" r="3" fill="url(#shieldGradient)"/>
  <line x1="79" y1="35" x2="70" y2="35" stroke="url(#shieldGradient)" stroke-width="2"/>
  
  <circle cx="82" cy="50" r="3" fill="url(#shieldGradient)"/>
  <line x1="79" y1="50" x2="72" y2="50" stroke="url(#shieldGradient)" stroke-width="2"/>
  
  <circle cx="82" cy="65" r="3" fill="url(#shieldGradient)"/>
  <line x1="79" y1="65" x2="74" y2="65" stroke="url(#shieldGradient)" stroke-width="2"/>
</svg>
